<mxfile host="app.diagrams.net" modified="2020-10-05T19:27:48.662Z" agent="5.0 (Macintosh; Intel Mac OS X 10_15_6) AppleWebKit/537.36 (KHTML, like Gecko) Chrome/85.0.4183.121 Safari/537.36" etag="BDnitcSyjGHVvBCjcm8k" version="13.7.7" type="github">
  <diagram id="ZsXgtQc-ikykNibHrKPM" name="Page-1">
    <mxGraphModel dx="1577" dy="965" grid="1" gridSize="10" guides="1" tooltips="1" connect="1" arrows="1" fold="1" page="1" pageScale="1" pageWidth="1169" pageHeight="827" math="0" shadow="0">
      <root>
        <mxCell id="0" />
        <mxCell id="1" parent="0" />
        <mxCell id="KXc_zhIp43CXAWg3LgQo-1" value="Nominativo" style="rounded=1;arcSize=10;whiteSpace=wrap;html=1;align=center;fontSize=20;" vertex="1" parent="1">
          <mxGeometry x="241" y="324" width="160" height="70" as="geometry" />
        </mxCell>
        <mxCell id="KXc_zhIp43CXAWg3LgQo-2" value="idNominativo" style="ellipse;whiteSpace=wrap;html=1;align=center;fontStyle=4;fontSize=13;" vertex="1" parent="1">
          <mxGeometry x="91" y="264" width="100" height="40" as="geometry" />
        </mxCell>
        <mxCell id="KXc_zhIp43CXAWg3LgQo-3" value="" style="endArrow=none;html=1;rounded=0;fontSize=13;exitX=0.5;exitY=1;exitDx=0;exitDy=0;entryX=0;entryY=0;entryDx=0;entryDy=0;" edge="1" parent="1" source="KXc_zhIp43CXAWg3LgQo-2" target="KXc_zhIp43CXAWg3LgQo-1">
          <mxGeometry relative="1" as="geometry">
            <mxPoint x="411" y="374" as="sourcePoint" />
            <mxPoint x="571" y="374" as="targetPoint" />
          </mxGeometry>
        </mxCell>
        <mxCell id="KXc_zhIp43CXAWg3LgQo-4" value="Cognome/SocietÃ " style="ellipse;whiteSpace=wrap;html=1;align=center;fontSize=13;" vertex="1" parent="1">
          <mxGeometry x="200" y="220" width="120" height="50" as="geometry" />
        </mxCell>
        <mxCell id="KXc_zhIp43CXAWg3LgQo-5" value="Nome" style="ellipse;whiteSpace=wrap;html=1;align=center;fontSize=13;" vertex="1" parent="1">
          <mxGeometry x="351" y="244" width="120" height="50" as="geometry" />
        </mxCell>
        <mxCell id="KXc_zhIp43CXAWg3LgQo-6" value="" style="endArrow=none;html=1;rounded=0;fontSize=13;exitX=0.5;exitY=1;exitDx=0;exitDy=0;entryX=0.25;entryY=0;entryDx=0;entryDy=0;" edge="1" parent="1" source="KXc_zhIp43CXAWg3LgQo-4" target="KXc_zhIp43CXAWg3LgQo-1">
          <mxGeometry relative="1" as="geometry">
            <mxPoint x="411" y="374" as="sourcePoint" />
            <mxPoint x="571" y="374" as="targetPoint" />
          </mxGeometry>
        </mxCell>
        <mxCell id="KXc_zhIp43CXAWg3LgQo-7" value="" style="endArrow=none;html=1;rounded=0;fontSize=13;exitX=0.5;exitY=1;exitDx=0;exitDy=0;entryX=0.5;entryY=0;entryDx=0;entryDy=0;" edge="1" parent="1" source="KXc_zhIp43CXAWg3LgQo-5" target="KXc_zhIp43CXAWg3LgQo-1">
          <mxGeometry relative="1" as="geometry">
            <mxPoint x="411" y="374" as="sourcePoint" />
            <mxPoint x="571" y="374" as="targetPoint" />
          </mxGeometry>
        </mxCell>
        <mxCell id="KXc_zhIp43CXAWg3LgQo-8" value="Contatti" style="rounded=1;arcSize=10;whiteSpace=wrap;html=1;align=center;fontSize=20;" vertex="1" parent="1">
          <mxGeometry x="861" y="324" width="160" height="70" as="geometry" />
        </mxCell>
        <mxCell id="KXc_zhIp43CXAWg3LgQo-9" value="Riferimenti" style="shape=rhombus;perimeter=rhombusPerimeter;whiteSpace=wrap;html=1;align=center;fontSize=13;" vertex="1" parent="1">
          <mxGeometry x="561" y="334" width="120" height="60" as="geometry" />
        </mxCell>
        <mxCell id="KXc_zhIp43CXAWg3LgQo-10" value="idContatto" style="ellipse;whiteSpace=wrap;html=1;align=center;fontStyle=4;fontSize=13;" vertex="1" parent="1">
          <mxGeometry x="731" y="254" width="100" height="40" as="geometry" />
        </mxCell>
        <mxCell id="KXc_zhIp43CXAWg3LgQo-11" value="Tipo riferimento" style="ellipse;whiteSpace=wrap;html=1;align=center;fontSize=13;" vertex="1" parent="1">
          <mxGeometry x="616" y="434" width="100" height="40" as="geometry" />
        </mxCell>
        <mxCell id="KXc_zhIp43CXAWg3LgQo-12" value="" style="endArrow=none;html=1;rounded=0;fontSize=13;exitX=1;exitY=1;exitDx=0;exitDy=0;" edge="1" parent="1" source="KXc_zhIp43CXAWg3LgQo-9">
          <mxGeometry relative="1" as="geometry">
            <mxPoint x="441" y="454" as="sourcePoint" />
            <mxPoint x="671" y="434" as="targetPoint" />
          </mxGeometry>
        </mxCell>
        <mxCell id="KXc_zhIp43CXAWg3LgQo-13" value="" style="endArrow=none;html=1;rounded=0;fontSize=13;exitX=0.5;exitY=1;exitDx=0;exitDy=0;entryX=0;entryY=0;entryDx=0;entryDy=0;" edge="1" parent="1" source="KXc_zhIp43CXAWg3LgQo-10" target="KXc_zhIp43CXAWg3LgQo-8">
          <mxGeometry relative="1" as="geometry">
            <mxPoint x="441" y="454" as="sourcePoint" />
            <mxPoint x="601" y="454" as="targetPoint" />
          </mxGeometry>
        </mxCell>
        <mxCell id="KXc_zhIp43CXAWg3LgQo-14" value="Nome Contatto" style="ellipse;whiteSpace=wrap;html=1;align=center;fontSize=13;" vertex="1" parent="1">
          <mxGeometry x="851" y="224" width="100" height="40" as="geometry" />
        </mxCell>
        <mxCell id="KXc_zhIp43CXAWg3LgQo-15" value="" style="endArrow=none;html=1;rounded=0;fontSize=13;exitX=0.5;exitY=1;exitDx=0;exitDy=0;entryX=0.25;entryY=0;entryDx=0;entryDy=0;" edge="1" parent="1" source="KXc_zhIp43CXAWg3LgQo-14" target="KXc_zhIp43CXAWg3LgQo-8">
          <mxGeometry relative="1" as="geometry">
            <mxPoint x="441" y="454" as="sourcePoint" />
            <mxPoint x="601" y="454" as="targetPoint" />
          </mxGeometry>
        </mxCell>
        <mxCell id="KXc_zhIp43CXAWg3LgQo-16" value="Contatto" style="ellipse;whiteSpace=wrap;html=1;align=center;fontSize=13;" vertex="1" parent="1">
          <mxGeometry x="991" y="224" width="100" height="40" as="geometry" />
        </mxCell>
        <mxCell id="KXc_zhIp43CXAWg3LgQo-17" value="" style="endArrow=none;html=1;rounded=0;fontSize=13;entryX=0.5;entryY=1;entryDx=0;entryDy=0;exitX=0.5;exitY=0;exitDx=0;exitDy=0;" edge="1" parent="1" source="KXc_zhIp43CXAWg3LgQo-8" target="KXc_zhIp43CXAWg3LgQo-16">
          <mxGeometry relative="1" as="geometry">
            <mxPoint x="441" y="454" as="sourcePoint" />
            <mxPoint x="601" y="454" as="targetPoint" />
          </mxGeometry>
        </mxCell>
        <mxCell id="KXc_zhIp43CXAWg3LgQo-18" value="idRiferimento" style="ellipse;whiteSpace=wrap;html=1;align=center;fontStyle=4;fontSize=13;" vertex="1" parent="1">
          <mxGeometry x="481" y="424" width="100" height="40" as="geometry" />
        </mxCell>
        <mxCell id="KXc_zhIp43CXAWg3LgQo-19" value="" style="endArrow=none;html=1;rounded=0;fontSize=13;exitX=0;exitY=1;exitDx=0;exitDy=0;entryX=0.5;entryY=0;entryDx=0;entryDy=0;" edge="1" parent="1" source="KXc_zhIp43CXAWg3LgQo-9" target="KXc_zhIp43CXAWg3LgQo-18">
          <mxGeometry relative="1" as="geometry">
            <mxPoint x="441" y="454" as="sourcePoint" />
            <mxPoint x="601" y="454" as="targetPoint" />
          </mxGeometry>
        </mxCell>
        <mxCell id="KXc_zhIp43CXAWg3LgQo-20" value="" style="endArrow=none;html=1;rounded=0;fontSize=13;exitX=1;exitY=0.5;exitDx=0;exitDy=0;entryX=0;entryY=0.5;entryDx=0;entryDy=0;" edge="1" parent="1" source="KXc_zhIp43CXAWg3LgQo-1" target="KXc_zhIp43CXAWg3LgQo-9">
          <mxGeometry relative="1" as="geometry">
            <mxPoint x="441" y="454" as="sourcePoint" />
            <mxPoint x="601" y="454" as="targetPoint" />
          </mxGeometry>
        </mxCell>
        <mxCell id="KXc_zhIp43CXAWg3LgQo-21" value="" style="endArrow=none;html=1;rounded=0;fontSize=13;exitX=1;exitY=0.5;exitDx=0;exitDy=0;entryX=0;entryY=0.5;entryDx=0;entryDy=0;" edge="1" parent="1" source="KXc_zhIp43CXAWg3LgQo-9" target="KXc_zhIp43CXAWg3LgQo-8">
          <mxGeometry relative="1" as="geometry">
            <mxPoint x="441" y="454" as="sourcePoint" />
            <mxPoint x="601" y="454" as="targetPoint" />
          </mxGeometry>
        </mxCell>
        <mxCell id="KXc_zhIp43CXAWg3LgQo-22" value="Note" style="ellipse;whiteSpace=wrap;html=1;align=center;fontSize=13;" vertex="1" parent="1">
          <mxGeometry x="130" y="419" width="120" height="50" as="geometry" />
        </mxCell>
        <mxCell id="KXc_zhIp43CXAWg3LgQo-23" value="" style="endArrow=none;html=1;rounded=0;fontSize=13;exitX=0.5;exitY=0;exitDx=0;exitDy=0;entryX=0.25;entryY=1;entryDx=0;entryDy=0;" edge="1" parent="1" source="KXc_zhIp43CXAWg3LgQo-22" target="KXc_zhIp43CXAWg3LgQo-1">
          <mxGeometry relative="1" as="geometry">
            <mxPoint x="410" y="400" as="sourcePoint" />
            <mxPoint x="570" y="400" as="targetPoint" />
          </mxGeometry>
        </mxCell>
        <mxCell id="KXc_zhIp43CXAWg3LgQo-24" value="Note" style="ellipse;whiteSpace=wrap;html=1;align=center;fontSize=13;" vertex="1" parent="1">
          <mxGeometry x="991" y="434" width="120" height="50" as="geometry" />
        </mxCell>
        <mxCell id="KXc_zhIp43CXAWg3LgQo-25" value="" style="endArrow=none;html=1;rounded=0;fontSize=13;entryX=0.5;entryY=0;entryDx=0;entryDy=0;exitX=0.75;exitY=1;exitDx=0;exitDy=0;" edge="1" parent="1" source="KXc_zhIp43CXAWg3LgQo-8" target="KXc_zhIp43CXAWg3LgQo-24">
          <mxGeometry relative="1" as="geometry">
            <mxPoint x="410" y="400" as="sourcePoint" />
            <mxPoint x="570" y="400" as="targetPoint" />
          </mxGeometry>
        </mxCell>
      </root>
    </mxGraphModel>
  </diagram>
</mxfile>
